<svg xmlns="http://www.w3.org/2000/svg" version="1.1" xmlns:xlink="http://www.w3.org/1999/xlink" xmlns:svgjs="http://svgjs.dev/svgjs" width="2000" height="1252" viewBox="0 0 2000 1252"><g transform="matrix(1,0,0,1,-1.2121212121212466,-2.01935483870966)"><svg viewBox="0 0 396 248" data-background-color="#ffffff" preserveAspectRatio="xMidYMid meet" height="1252" width="2000" xmlns="http://www.w3.org/2000/svg" xmlns:xlink="http://www.w3.org/1999/xlink"><g id="tight-bounds" transform="matrix(1,0,0,1,0.2400000000000091,0.4000000000000057)"><svg viewBox="0 0 395.52 247.2" height="247.2" width="395.52"><g><svg></svg></g><g><svg viewBox="0 0 395.52 247.2" height="247.2" width="395.52"><g transform="matrix(1,0,0,1,75.54432,96.30876998230087)"><svg viewBox="0 0 244.43135999999998 54.58246003539823" height="54.58246003539823" width="244.43135999999998"><g><svg viewBox="0 0 244.43135999999998 54.58246003539823" height="54.58246003539823" width="244.43135999999998"><g><svg viewBox="0 0 244.43135999999998 54.58246003539823" height="54.58246003539823" width="244.43135999999998"><g><svg viewBox="0 0 244.43135999999998 54.58246003539823" height="54.58246003539823" width="244.43135999999998"><g id="textblocktransform"><svg viewBox="0 0 244.43135999999998 54.58246003539823" height="54.58246003539823" width="244.43135999999998" id="textblock"><g><svg viewBox="0 0 244.43135999999998 54.58246003539823" height="54.58246003539823" width="244.43135999999998"><g transform="matrix(1,0,0,1,0,0)"><svg width="244.43135999999998" viewBox="3.9 -37.35 169.48999999999998 37.85" height="54.58246003539823" data-palette-color="#000000"><path d="M30.85 0L9.35-23.8 9.5-19.8 9.5 0 3.9 0 3.9-36.8 4.6-36.8 26.2-12.7 26-16.9 26-36.75 31.6-36.75 31.6 0 30.85 0ZM56.3 0.5Q51.3 0.5 47.07-1.83 42.85-4.15 40.35-8.45 37.85-12.75 37.85-18.45L37.85-18.45Q37.85-24.2 40.35-28.48 42.85-32.75 47.07-35.05 51.3-37.35 56.3-37.35L56.3-37.35Q61.3-37.35 65.52-35.05 69.75-32.75 72.25-28.48 74.75-24.2 74.75-18.45L74.75-18.45Q74.75-12.75 72.25-8.45 69.75-4.15 65.52-1.83 61.3 0.5 56.3 0.5L56.3 0.5ZM56.3-4.55Q59.75-4.55 62.6-6.18 65.45-7.8 67.12-10.93 68.8-14.05 68.8-18.4L68.8-18.4Q68.8-22.8 67.12-25.93 65.45-29.05 62.62-30.65 59.8-32.25 56.3-32.25L56.3-32.25Q52.8-32.25 49.95-30.65 47.1-29.05 45.45-25.93 43.8-22.8 43.8-18.4L43.8-18.4Q43.8-14.05 45.5-10.93 47.2-7.8 50.07-6.18 52.95-4.55 56.3-4.55L56.3-4.55ZM86 0L86-31.85 76.59-31.85 76.59-36.75 101.05-36.75 101.05-31.85 91.55-31.85 91.55 0 86 0ZM106.39 0L106.39-36.75 122.49-36.75 122.49-31.85 111.94-31.85 111.94-21.7 120.44-21.7 120.44-16.7 111.94-16.7 111.94-4.95 124.14-4.95 124.14 0 106.39 0ZM129.74 0L129.74-36.75 145.84-36.75 145.84-31.85 135.29-31.85 135.29-21.7 143.79-21.7 143.79-16.7 135.29-16.7 135.29-4.95 147.49-4.95 147.49 0 129.74 0ZM161.59 0.5Q158.59 0.5 155.64-0.55 152.69-1.6 151.39-2.9L151.39-2.9 154.04-7.65Q155.09-6.7 157.31-5.68 159.54-4.65 161.59-4.65L161.59-4.65Q164.24-4.65 165.91-5.9 167.59-7.15 167.59-9.35L167.59-9.35Q167.59-11.05 166.69-12.3 165.79-13.55 164.49-14.38 163.19-15.2 160.79-16.4L160.79-16.4Q157.94-17.8 156.89-18.5L156.89-18.5Q152.04-21.75 152.04-27.5L152.04-27.5Q152.04-32.25 155.19-34.77 158.34-37.3 163.14-37.3L163.14-37.3Q168.29-37.3 171.89-34.35L171.89-34.35 169.24-29.8Q168.29-30.8 166.56-31.53 164.84-32.25 162.89-32.25L162.89-32.25Q160.39-32.25 158.96-31.13 157.54-30 157.54-27.8L157.54-27.8Q157.54-26.25 158.44-25.03 159.34-23.8 160.71-22.9 162.09-22 164.44-20.7L164.44-20.7Q166.69-19.45 167.89-18.73 169.09-18 170.14-17L170.14-17Q171.59-15.7 172.49-13.9 173.39-12.1 173.39-9.95L173.39-9.95Q173.39-6.6 171.86-4.25 170.34-1.9 167.66-0.7 164.99 0.5 161.59 0.5L161.59 0.5Z" opacity="1" transform="matrix(1,0,0,1,0,0)" fill="#000000" class="wordmark-text-0" data-fill-palette-color="primary" id="text-0"></path></svg></g></svg></g></svg></g></svg></g></svg></g></svg></g></svg></g><path d="M194.585 90.309L194.585 30.609 8.603 30.609 8.603 216.591 194.585 216.591 194.585 156.891 189.663 156.891 189.663 211.669 13.526 211.669 13.526 35.531 189.663 35.531 189.663 90.309Z" fill="#000000" stroke="transparent" data-fill-palette-color="tertiary"></path></svg></g><defs></defs></svg><rect width="395.52" height="247.2" fill="none" stroke="none" visibility="hidden"></rect></g></svg></g></svg>